<?xml version="1.0" standalone="no"?>
<!DOCTYPE svg PUBLIC "-//W3C//DTD SVG 20010904//EN"
 "http://www.w3.org/TR/2001/REC-SVG-20010904/DTD/svg10.dtd">
<svg version="1.0" xmlns="http://www.w3.org/2000/svg"
 width="225.000000pt" height="100.000000pt" viewBox="0 0 225.000000 100.000000"
 preserveAspectRatio="xMidYMid meet">

<g transform="translate(0.000000,100.000000) scale(0.100000,-0.100000)"
fill="#000000" stroke="none">
<path d="M2075 840 l15 -29 -60 -7 c-40 -4 -60 -11 -60 -20 0 -10 14 -12 64
-7 l64 6 26 -80 c14 -45 33 -121 42 -171 11 -54 23 -93 31 -96 18 -7 12 28
-29 184 -47 181 -49 162 16 154 48 -6 56 -4 56 10 0 12 -10 16 -44 16 -61 0
-92 14 -100 44 -3 14 -13 26 -21 26 -14 0 -14 -3 0 -30z"/>
<path d="M1746 742 c-72 -13 -50 -27 34 -24 88 4 158 -4 144 -18 -8 -7 -111
-30 -136 -30 -4 0 -8 7 -8 15 0 26 -17 16 -23 -14 -9 -42 3 -101 20 -101 10 0
12 6 8 20 -4 13 -2 20 7 20 25 0 175 -39 227 -59 46 -17 52 -17 49 -4 -3 19
-110 57 -205 75 -34 6 -60 14 -58 18 3 4 27 10 55 14 96 13 127 45 70 73 -32
15 -134 23 -184 15z"/>
<path d="M1515 706 c-11 -7 -66 -25 -123 -40 -183 -47 -238 -74 -230 -112 5
-28 56 -35 151 -21 48 7 87 11 87 9 0 -7 -149 -72 -164 -72 -9 0 -16 -7 -16
-16 0 -23 34 -13 148 42 84 41 114 65 99 80 -3 3 -52 -2 -110 -11 -255 -40
-220 8 61 83 87 23 112 27 112 16 0 -8 -4 -14 -10 -14 -5 0 -10 -7 -10 -15 0
-8 5 -15 11 -15 8 0 10 -15 7 -45 -4 -32 -2 -45 7 -45 7 0 12 6 12 13 -1 6 3
29 7 49 6 27 15 39 34 46 15 6 35 13 45 17 14 6 17 1 17 -29 0 -45 36 -74 69
-56 46 24 11 140 -38 127 -9 -2 -22 2 -29 10 -17 17 -112 17 -137 -1z m100 -6
c-3 -5 0 -10 7 -11 7 0 -2 -7 -21 -15 -28 -13 -36 -13 -42 -2 -6 8 -2 18 8 26
20 14 57 16 48 2z m93 -72 c-4 -41 -28 -50 -28 -10 0 16 3 32 7 35 15 16 24 5
21 -25z"/>
<path d="M201 583 c-24 -80 -96 -233 -110 -233 -28 0 -22 134 11 229 22 65 21
61 4 61 -22 0 -56 -121 -56 -201 0 -77 11 -109 39 -109 24 0 44 24 76 90 l26
55 -6 -65 c-4 -36 -8 -71 -10 -77 -3 -7 2 -13 10 -13 15 0 17 9 35 151 l12 87
42 5 c41 6 163 -6 173 -17 9 -9 -44 -26 -104 -33 -50 -5 -56 -4 -50 10 4 11 1
17 -8 17 -12 0 -19 -18 -50 -117 -3 -7 2 -13 10 -13 7 0 16 8 20 19 5 17 12
16 128 -15 109 -30 128 -32 181 -24 72 11 106 32 106 64 0 19 -7 26 -30 31
-29 6 -40 20 -21 27 5 2 11 12 13 23 2 13 -3 20 -17 23 -16 2 -17 1 -5 -7 8
-6 10 -11 5 -11 -6 0 -16 5 -23 12 -9 9 -12 9 -12 0 0 -7 -8 -12 -17 -12 -15
0 -16 2 -3 10 21 14 -3 13 -35 -2 -14 -6 -25 -14 -25 -17 -1 -3 -2 -28 -4 -54
-2 -27 -6 -50 -9 -53 -4 -5 -61 8 -172 38 l-40 11 73 13 c180 31 156 104 -34
104 l-86 0 6 30 c4 22 2 30 -8 30 -9 0 -22 -27 -35 -67z m374 -68 c-31 -13
-50 -11 -40 6 4 5 21 9 38 8 l32 -1 -30 -13z m50 -57 l40 -11 -30 -13 c-36
-16 -91 -18 -100 -4 -11 19 3 40 27 40 13 0 41 -5 63 -12z"/>
<path d="M937 618 c-3 -13 -9 -49 -12 -80 -8 -61 -19 -68 -30 -18 -6 27 -21
47 -30 39 -2 -2 -6 -30 -10 -61 -5 -40 -4 -58 4 -58 6 0 11 7 11 15 0 8 4 15
9 15 13 0 41 -47 41 -70 0 -11 7 -20 15 -20 12 0 15 17 15 88 1 48 5 106 9
130 6 31 5 42 -4 42 -7 0 -15 -10 -18 -22z"/>
<path d="M740 533 c-7 -21 -19 -44 -28 -51 -12 -9 -27 -42 -19 -42 1 0 26 9
55 20 28 11 52 15 52 10 0 -21 20 -9 36 21 16 31 16 32 -6 26 -18 -5 -24 0
-33 24 -16 41 -43 38 -57 -8z m40 -24 c0 -5 -7 -9 -15 -9 -9 0 -12 6 -9 15 6
15 24 11 24 -6z"/>
<path d="M2015 190 c-16 -33 -26 -63 -22 -66 4 -4 11 5 16 19 6 15 20 44 31
67 11 22 17 40 12 40 -5 0 -21 -27 -37 -60z"/>
<path d="M521 179 c-33 -53 -37 -64 -22 -54 15 9 72 105 62 105 -4 0 -22 -23
-40 -51z"/>
<path d="M613 223 c-20 -7 -15 -29 10 -47 22 -16 22 -16 -8 -9 -27 6 -29 5
-16 -10 17 -21 44 -22 60 -3 10 11 7 19 -11 36 -19 17 -20 20 -4 14 14 -5 17
-3 14 7 -5 15 -25 21 -45 12z"/>
<path d="M710 220 c0 -5 4 -10 9 -10 6 0 7 -16 4 -35 -4 -22 -2 -35 5 -35 6 0
14 16 18 35 3 20 12 35 20 35 8 0 14 5 14 10 0 6 -16 10 -35 10 -19 0 -35 -4
-35 -10z"/>
<path d="M846 218 c-15 -47 -15 -78 -1 -78 8 0 15 7 15 15 0 8 5 15 10 15 6 0
10 -7 10 -15 0 -8 7 -15 15 -15 8 0 12 6 9 14 -3 8 -1 23 5 34 7 13 7 22 -1
30 -16 16 -58 15 -62 0z"/>
<path d="M996 208 c-13 -52 -8 -68 24 -68 35 0 40 17 8 23 l-23 4 23 2 c26 1
30 27 5 34 -14 4 -12 5 5 6 33 2 27 21 -7 21 -21 0 -30 -6 -35 -22z"/>
<path d="M1136 214 c-3 -9 -6 -29 -6 -45 0 -26 4 -29 30 -29 34 0 42 20 8 21
l-23 0 23 9 c26 11 29 27 5 33 -14 4 -12 5 5 6 33 2 27 21 -7 21 -17 0 -31 -6
-35 -16z"/>
<path d="M1270 220 c0 -5 5 -10 10 -10 7 0 8 -13 4 -35 -4 -21 -2 -35 4 -35
12 0 22 24 22 51 0 10 7 19 15 19 8 0 15 5 15 10 0 6 -16 10 -35 10 -19 0 -35
-4 -35 -10z"/>
<path d="M1404 199 c3 -17 6 -38 6 -45 0 -23 18 -16 34 14 l15 27 1 -28 c0
-18 5 -27 12 -25 16 6 50 88 37 88 -6 0 -13 -9 -16 -20 -3 -11 -9 -20 -14 -20
-5 0 -9 9 -9 20 0 27 -20 26 -28 -2 l-5 -22 -8 22 c-13 35 -33 27 -25 -9z"/>
<path d="M1586 199 c-10 -53 -8 -59 23 -59 35 0 53 19 19 21 -17 1 -18 3 -5 6
9 2 17 11 17 18 0 7 -8 16 -17 18 -14 4 -13 5 4 6 37 2 37 21 0 21 -31 0 -35
-4 -41 -31z"/>
<path d="M1730 188 c-22 -49 -20 -55 9 -36 18 11 23 11 31 -2 15 -24 22 -4 15
39 -9 54 -31 53 -55 -1z"/>
<path d="M1875 203 c-4 -16 -8 -36 -10 -45 -2 -11 3 -18 11 -18 8 0 14 7 14
15 0 8 5 15 10 15 6 0 10 -7 10 -15 0 -8 7 -15 15 -15 9 0 12 6 9 15 -4 8 -1
22 6 30 17 20 -3 45 -36 45 -18 0 -25 -7 -29 -27z"/>
</g>
</svg>
